<?xml version="1.0" standalone="no"?>
<svg xmlns:xlink="http://www.w3.org/1999/xlink" id="wave" style="transform:rotate(180deg); transition: 0.3s" viewBox="0 0 1440 100" version="1.1" xmlns="http://www.w3.org/2000/svg"><defs><linearGradient id="sw-gradient-0" x1="0" x2="0" y1="1" y2="0"><stop stop-color="rgba(255, 249, 234, 1)" offset="0%"/><stop stop-color="rgba(255, 249, 234, 1)" offset="100%"/></linearGradient></defs><path style="transform:translate(0, 0px); opacity:1" fill="url(#sw-gradient-0)" d="M0,40L40,35C80,30,160,20,240,13.3C320,7,400,3,480,6.7C560,10,640,20,720,31.7C800,43,880,57,960,53.3C1040,50,1120,30,1200,20C1280,10,1360,10,1440,8.3C1520,7,1600,3,1680,3.3C1760,3,1840,7,1920,11.7C2000,17,2080,23,2160,25C2240,27,2320,23,2400,25C2480,27,2560,33,2640,31.7C2720,30,2800,20,2880,20C2960,20,3040,30,3120,38.3C3200,47,3280,53,3360,46.7C3440,40,3520,20,3600,16.7C3680,13,3760,27,3840,41.7C3920,57,4000,73,4080,78.3C4160,83,4240,77,4320,76.7C4400,77,4480,83,4560,85C4640,87,4720,83,4800,68.3C4880,53,4960,27,5040,23.3C5120,20,5200,40,5280,41.7C5360,43,5440,27,5520,28.3C5600,30,5680,50,5720,60L5760,70L5760,100L5720,100C5680,100,5600,100,5520,100C5440,100,5360,100,5280,100C5200,100,5120,100,5040,100C4960,100,4880,100,4800,100C4720,100,4640,100,4560,100C4480,100,4400,100,4320,100C4240,100,4160,100,4080,100C4000,100,3920,100,3840,100C3760,100,3680,100,3600,100C3520,100,3440,100,3360,100C3280,100,3200,100,3120,100C3040,100,2960,100,2880,100C2800,100,2720,100,2640,100C2560,100,2480,100,2400,100C2320,100,2240,100,2160,100C2080,100,2000,100,1920,100C1840,100,1760,100,1680,100C1600,100,1520,100,1440,100C1360,100,1280,100,1200,100C1120,100,1040,100,960,100C880,100,800,100,720,100C640,100,560,100,480,100C400,100,320,100,240,100C160,100,80,100,40,100L0,100Z"/></svg>